<svg xmlns="http://www.w3.org/2000/svg" xmlns:xlink="http://www.w3.org/1999/xlink" x="0px" y="0px" viewBox="0 0 118.8 83.2" style="enable-background:new 0 0 118.8 83.2; fill:currentColor;" xml:space="preserve">
<g>
<path d="M1.5,47.2c-0.3,0.4-0.2,0.9,0.2,1.2C2,48.7,2.7,48.3,3,47.9c1.1-1.4,1.8-2.3,2.3-4c0.1-0.4,0.2-0.8,0.3-1.2   c0.4,0.5,0.7,1.1,1.2,1.5c1.3,1.2,2.5,1.8,3.4,2c1.2,0.3,1.9-0.1,0.7-1c-0.2-0.1-0.7-0.5-1-0.8c-0.5-0.4-1-1-1.8-1.7   c-1.3-1.2-2.7-3.6-3.3-3.5c-0.9,0.3-0.7,2.9-1.2,4C3.2,44.8,2.4,46,1.5,47.2L1.5,47.2z"></path>
<path d="M44.1,52.4c-0.3,0.4-0.2,0.9,0.2,1.2c0.4,0.3,1.1-0.2,1.3-0.5c1.1-1.4,1.8-2.3,2.3-4c0.1-0.4,0.2-0.8,0.3-1.2   c0.4,0.5,0.7,1.1,1.2,1.5c1.3,1.2,2.5,1.8,3.4,2c1.2,0.3,1.9-0.1,0.7-1c-0.2-0.1-0.7-0.5-1-0.8c-0.5-0.4-1-1-1.8-1.7   c-1.3-1.2-2.7-3.6-3.3-3.5c-0.9,0.3-0.7,2.9-1.2,4C45.8,50,45.1,51.2,44.1,52.4L44.1,52.4z"></path>
<path d="M2.2,53.2c-0.3,0.3-0.3,0.8,0,1.2c0.3,0.3,1.1-0.1,1.4-0.4c1.3-1.1,2-2,2.8-3.6c0.2-0.4,0.3-0.7,0.5-1.1   c0.4,0.5,0.8,1,1.2,1.5c1.1,1.4,2.1,2.2,3,2.6c1.1,0.5,2-0.1,0.9-1c-0.2-0.2-0.7-0.5-1-0.8c-0.5-0.5-0.9-1-1.5-1.8   c-0.6-0.7-1.3-1.5-1.8-2.3c-0.5-0.8-0.8-1.6-1.1-1.5c-0.5,0-0.8,0.4-0.8,0.9h0c0,0.9-0.2,2-0.7,2.9C4.2,51,3.3,52.1,2.2,53.2   L2.2,53.2z"></path>
<path d="M44.9,58.4c-0.3,0.3-0.3,0.8,0,1.2c0.3,0.3,1.1-0.1,1.4-0.4c1.3-1.1,2-2,2.8-3.6c0.2-0.4,0.3-0.7,0.5-1.1   c0.4,0.5,0.8,1,1.2,1.5c1.1,1.4,2.1,2.2,3,2.6c1.1,0.5,2-0.1,0.9-1c-0.2-0.2-0.7-0.5-1-0.8c-0.5-0.5-0.9-1-1.5-1.8   c-0.6-0.7-1.3-1.5-1.8-2.3c-0.5-0.8-0.8-1.6-1.1-1.5c-0.5,0-0.8,0.4-0.8,0.9l0,0c0,0.9-0.2,2-0.7,2.9   C46.8,56.2,45.9,57.3,44.9,58.4L44.9,58.4z"></path>
<path d="M24.8,47.9c0.7,0.2,1.3,0.2,1.6-0.2c0.2-0.4-0.4-0.9-0.8-1.1c-2.1-1.5-2.9-2-4.1-3.5c-0.1-0.2-0.3-0.3-0.4-0.5   c-0.1-0.1-0.1-0.2-0.3-0.3c-0.3-0.2-0.8-0.2-1.1,0c-0.1,0.1-0.2,0.2-0.2,0.3c-0.3,0.5-1.6,2.5-2.8,3.9c-0.6,0.7-1,1-1.2,1.3   c-1.2,0.7-1.1,1.7,0,1.7c0.3,0,0.6-0.2,0.9-0.4c0.5-0.3,1.1-0.7,1.7-1.4c0.9-0.9,2-1.6,2.6-2.6C22,46.3,23,47,24.8,47.9L24.8,47.9z   "></path>
<path d="M67.4,53.1c0.7,0.2,1.3,0.2,1.6-0.2c0.2-0.4-0.4-0.9-0.8-1.1c-2.1-1.5-2.9-2-4.1-3.5c-0.1-0.2-0.3-0.3-0.4-0.5   c-0.1-0.1-0.1-0.2-0.3-0.3c-0.3-0.2-0.8-0.2-1.1,0c-0.1,0.1-0.2,0.2-0.2,0.3c-0.3,0.5-1.6,2.5-2.8,3.9c-0.6,0.7-1,1-1.2,1.3   c-1.2,0.7-1.1,1.7,0,1.7c0.3,0,0.6-0.2,0.9-0.4c0.5-0.3,1.1-0.7,1.7-1.4c0.9-0.9,2-1.7,2.6-2.6C64.6,51.5,65.6,52.2,67.4,53.1   L67.4,53.1z"></path>
<path d="M37.6,53c0.4,0.2,0.9,0.1,1.2-0.3c0.2-0.4,0.1-0.9-0.3-1.2c-1.8-1.1-2.5-2.1-3.6-3.4c-0.5-0.6-0.7-0.7-0.7-0.8   c-0.3-0.2-0.7-0.1-0.9,0.1c-0.1,0.1-0.2,0.2-0.2,0.3c-0.2,0.4-1.3,2.1-2.3,3.3c-0.5,0.6-0.7,0.8-0.9,1c-0.4,0.3-0.7,0.6-0.7,1.1   c0,0.5,0.2,0.6,0.7,0.6c0.7,0,1.5-0.7,2.3-1.6c0.7-0.8,1.4-1.8,1.9-2.6C34.9,50.9,35.8,51.9,37.6,53L37.6,53z"></path>
<path d="M0.9,66.1c-0.4,0.3-0.4,0.8-0.1,1.2c0.3,0.4,0.8,0.4,1.2,0.1c0.3-0.3,0.7-0.5,1.1-0.8c1.4-0.9,3-2,4.2-4.3   c1.3,1.6,3.6,4.3,5,4.9c0.4,0.2,0.9,0,1.1-0.5c0.2-0.4,0-0.9-0.5-1.1c-1.2-0.5-3.7-3.7-4.8-5c-0.2-0.2-0.3-0.4-0.5-0.6   c-0.1-0.1-0.2-0.2-0.4-0.3c-0.4-0.2-0.9,0.1-1.1,0.5l0,0c-1,2.7-2.7,3.8-4.1,4.8C1.8,65.5,1.3,65.8,0.9,66.1L0.9,66.1z"></path>
<path d="M0.9,60c-0.4,0.3-0.4,0.8-0.1,1.2c0.3,0.4,0.8,0.4,1.2,0.1c0.3-0.3,0.7-0.5,1.1-0.8c1.4-0.9,3-2,4.2-4.3   c1.3,1.6,3.6,4.3,5,4.9c0.4,0.2,0.9,0,1.1-0.5c0.2-0.4,0-0.9-0.5-1.1c-1.2-0.5-3.7-3.7-4.8-5c-0.2-0.2-0.3-0.4-0.5-0.6   c-0.1-0.1-0.2-0.2-0.4-0.3c-0.4-0.2-0.9,0.1-1.1,0.5l0,0c-1,2.7-2.7,3.8-4.1,4.8C1.7,59.4,1.2,59.7,0.9,60L0.9,60z"></path>
<path d="M43.5,65.2c-0.4,0.3-0.4,0.8-0.1,1.2c0.3,0.4,0.8,0.4,1.2,0.1c0.3-0.3,0.7-0.5,1.1-0.8c1.4-0.9,3-2,4.2-4.3   c1.3,1.6,3.6,4.3,5,4.9c0.4,0.2,0.9,0,1.1-0.5c0.2-0.4,0-0.9-0.5-1.1c-1.2-0.5-3.7-3.7-4.8-5c-0.2-0.2-0.3-0.4-0.5-0.6   c-0.1-0.1-0.2-0.2-0.4-0.3c-0.4-0.2-0.9,0.1-1.1,0.5l0,0c-1,2.7-2.7,3.8-4.1,4.8C44.3,64.6,43.9,64.9,43.5,65.2L43.5,65.2z"></path>
<path d="M15.5,53.8c-0.4,0.3-0.4,0.8-0.1,1.2c0.3,0.4,0.7,0.3,1.2,0.1c0.5-0.2,0.9-0.5,1.3-0.8c1.2-0.9,2.2-1.3,3.4-3   c1.3,1.2,3.7,2.6,5,3.1c0.4,0.2,0.9,0.1,1.1-0.3c0.2-0.4-0.2-0.9-0.7-1.3c-1.1-0.8-3.8-2.6-4.7-3.9c-0.2-0.2-0.3-0.3-0.4-0.4   c-0.1-0.1-0.2-0.1-0.3-0.2c-0.4-0.2-0.9,0.1-1.1,0.5l0,0c-0.9,2.1-2.2,3-3.4,4C16.4,53.2,16,53.5,15.5,53.8L15.5,53.8z"></path>
<path d="M58.2,59c-0.4,0.3-0.4,0.8-0.1,1.2c0.3,0.4,0.7,0.3,1.2,0.1c0.5-0.2,0.9-0.5,1.3-0.8c1.2-0.9,2.2-1.3,3.4-3   c1.3,1.2,3.7,2.6,5,3.1c0.4,0.2,0.9,0.1,1.1-0.3c0.2-0.4-0.2-0.9-0.7-1.3c-1.1-0.8-3.8-2.6-4.7-3.9c-0.2-0.2-0.3-0.3-0.4-0.4   c-0.1-0.1-0.2-0.1-0.3-0.2c-0.4-0.2-0.9,0.1-1.1,0.5l0,0c-0.9,2.1-2.2,3-3.4,4C59,58.4,58.6,58.7,58.2,59L58.2,59z"></path>
<path d="M15.5,41.6c-0.3,0.3-0.3,0.7-0.1,1c0.3,0.3,1.2-0.3,1.6-0.7c0.9-0.8,1.6-1,2.2-2.7c1,0.9,2.7,2.3,3.6,2.6   c0.4,0.2,1.3-0.4,0.4-1.3c-0.8-0.4-2.9-2.5-3.6-3.2c-0.1-0.1-0.2-0.2-0.3-0.3C19.2,37,19.1,37,19,37c-0.3-0.1-0.7,0.1-0.8,0.5h0   c-0.5,2-1.1,2.5-2,3.3C16,41,15.7,41.3,15.5,41.6L15.5,41.6z"></path>
<path d="M58.1,46.8c-0.3,0.3-0.3,0.7-0.1,1c0.3,0.3,1.2-0.3,1.6-0.7c0.9-0.8,1.6-1,2.2-2.7c1,0.9,2.7,2.3,3.6,2.6   c0.4,0.2,1.3-0.4,0.4-1.3c-0.8-0.4-2.9-2.5-3.6-3.2c-0.1-0.1-0.2-0.2-0.3-0.3c-0.1-0.1-0.1-0.1-0.2-0.1c-0.3-0.1-0.7,0.1-0.8,0.5   l0,0c-0.5,2-1.1,2.5-2,3.3C58.7,46.2,58.4,46.5,58.1,46.8L58.1,46.8z"></path>
<path d="M29.9,56.3c-0.4,0.3-0.4,0.8-0.1,1.2c0.3,0.4,0.8,0.4,1.2,0.1c0.3-0.2,0.5-0.4,0.8-0.6   c0.9-0.6,1.9-1.3,2.7-2.6c1,0.9,2.7,2.4,3.7,2.8c0.4,0.2,0.9,0,1.1-0.5c0.2-0.4,0-0.9-0.5-1.1c-0.8-0.4-2.9-2.2-3.7-3   c-0.1-0.1-0.2-0.2-0.3-0.3c-0.1-0.1-0.2-0.2-0.3-0.2c-0.4-0.2-0.9,0.1-1.1,0.5l0,0c-0.6,1.7-1.5,2.3-2.5,2.9   C30.6,55.9,30.3,56.1,29.9,56.3L29.9,56.3z"></path>
<path d="M30,61.4c-0.4,0.3-0.4,0.8-0.1,1.2c0.3,0.4,0.8,0.4,1.2,0.1c0.3-0.2,0.5-0.4,0.8-0.6c0.9-0.6,1.9-1.3,2.7-2.6   c1,0.9,2.7,2.4,3.7,2.8c0.4,0.2,0.9,0,1.1-0.5c0.2-0.4,0-0.9-0.5-1.1c-0.8-0.4-2.9-2.2-3.7-3c-0.1-0.1-0.2-0.2-0.3-0.3   c-0.1-0.1-0.2-0.2-0.3-0.2c-0.4-0.2-0.9,0.1-1.1,0.5h0c-0.6,1.7-1.5,2.3-2.5,2.9C30.7,60.9,30.3,61.1,30,61.4L30,61.4z"></path>
<path d="M5.7,40.2c-0.1-0.5-0.6-0.7-1.1-0.6c-0.5,0.1-0.4,1.3-0.3,1.7c0.7,2.4,1.1,4.5,1.5,7.5   c0.5,3.1,0.7,6.3,0.8,9.5c0,0.8-0.1,4.6-0.2,8.6c-0.1,4.2-0.3,8.7-0.2,10.3c0,0.5,0.4,0.9,0.9,0.8c0.5,0,0.9-0.4,0.8-0.9   c0-1.5,0.1-6,0.2-10.2c0.1-4,0.2-7.8,0.2-8.7C8.2,55,8,51.7,7.5,48.6C7,45.5,6.4,42.7,5.7,40.2L5.7,40.2z"></path>
<path d="M48.3,45.4c-0.1-0.5-0.6-0.7-1.1-0.6c-0.5,0.1-0.4,1.3-0.3,1.7c0.7,2.4,1.1,4.5,1.5,7.5   c0.5,3.1,0.7,6.3,0.8,9.5c0,0.8-0.1,4.6-0.2,8.6c-0.1,4.2-0.3,8.7-0.2,10.3c0,0.5,0.4,0.9,0.9,0.8c0.5,0,0.9-0.4,0.8-0.9   c0-1.5,0.1-6,0.2-10.2c0.1-4,0.2-7.8,0.2-8.7c-0.1-3.3-0.4-6.6-0.8-9.7C49.7,50.7,49.1,47.8,48.3,45.4L48.3,45.4z"></path>
<path d="M19.9,38.6c-0.1-0.4-0.6-0.7-1-0.6c-0.4,0.1-0.7,0.6-0.6,1c0.7,2.3,1.3,5,1.7,7.8c0.4,3,0.7,6.1,0.8,9.1   c0,0.8,0.2,1.6,0.1,5.4c-0.1,4.1-0.1,2.4,0,3.9c0,0.5,0.4,0.8,0.8,0.8c0.5,0,0.8-0.4,0.8-0.8c0-1.5-0.1,0.2,0-3.9   c0.1-3.8-0.1-4.6-0.1-5.5c-0.1-3.1-0.4-6.3-0.8-9.3C21.2,43.8,20.6,41,19.9,38.6L19.9,38.6z"></path>
<path d="M34.6,48.8c-0.1-0.5-0.5-0.9-0.9-0.8c-0.4,0.1-0.8,0.6-0.7,1.1c0.4,2.8,0.6,5.9,0.6,9.2c0,4.8,0.4,3.8-0.2,8.6   c-0.1,0.5,0.3,1,0.7,1.1c0.4,0.1,0.9-0.3,0.9-0.8c0.5-4.9,0.2-4,0.2-8.9C35.2,54.9,35,51.6,34.6,48.8L34.6,48.8z"></path>
<path d="M62.5,43.8c-0.1-0.4-0.6-0.7-1-0.6c-0.4,0.1-0.7,0.6-0.6,1c0.7,2.3,1.3,5,1.7,7.8c0.4,3,0.7,6.1,0.8,9.1   c0,0.8,0.2,1.6,0.1,5.4c-0.1,4.1-0.1,2.4,0,3.9c0,0.5,0.4,0.8,0.8,0.8c0.5,0,0.8-0.4,0.8-0.8c0-1.5-0.1,0.2,0-3.9   c0.1-3.8-0.1-4.6-0.1-5.5c-0.1-3.1-0.4-6.3-0.8-9.3C63.8,49,63.2,46.2,62.5,43.8L62.5,43.8z"></path>
<path d="M21.2,33.2c-0.2,0.4-0.1,0.9,0.3,1.2c0.4,0.2,0.9,0.1,1.2-0.3c1-1.6,2-3.1,3.1-4.6c0.9-1.2,1.8-2.3,2.6-3.2   l3.7,3.5c0.6,0.5,0.5,0.5,0.8,0.6c0.7,0.4,1.3,0.1,1.9-0.5c1.1-1.2,2.3-4.5,3.4-7.5c0.8-2.2,1.6-4.3,2-5c1.6,1.4,2.2,3.3,2.9,5.8   c0.3,0.9,0.6,1.9,0.9,2.9c0.1,0.3,0.2,0.5,0.2,0.5c0.2,0.3,0.6,0.4,1,0.3c0.3-0.1,0.5-0.3,0.5-0.6c0.2-0.7,1-3,1.6-4.8   c0.1-0.4,0.3-0.7,0.4-1c0.2,0.4,0.4,0.8,0.8,1.2c0.3,0.4,0.8,0.8,1.4,0.7c0.5-0.2,0.8-0.9,1-1.4c1.2-3,3.1-10.6,4-14.3   c1.2,1.6,3.1,4.2,5.2,7.9c2.4,4.2,5.1,9.7,7.5,16.5c0.2,0.4,0.6,0.7,1.1,0.5c0.4-0.2,0.7-0.6,0.5-1.1c-2.4-7-5.2-12.6-7.6-16.8   c-2.4-4.2-4.5-7.1-5.7-8.6c-0.3-0.6-0.6-1.4-1.3-1.5c-0.2,0-0.6,0.3-0.9,1.1c-1.2,3.4-3.1,13.2-4,15.6c-0.1-0.1-0.1-0.2-0.2-0.4   c-0.4-0.7-0.9-1.8-1.9-1.9c0,0-1.3,2.1-1.7,3.1c-0.3,0.8-0.6,1.6-0.8,2.4l-0.2-0.7c-0.8-2.7-1.5-4.8-3.4-6.5   c-0.8-0.7-1.3-1.2-2.1-0.3c-0.9,1-1.8,3.4-2.7,5.9c-1,2.7-1.9,5.6-2.9,6.7c-0.1,0.1-0.3,0.3-0.5,0.1l-4.1-3.9   c-0.1-0.1-0.3-0.3-0.4-0.3c-0.2-0.1-0.5-0.1-0.8,0c0,0-0.2,0.2-0.4,0.4c-0.9,1-2,2.3-3.1,3.7C23.4,30,22.2,31.6,21.2,33.2   L21.2,33.2z"></path>
<path d="M48.4,38.7c-0.4,0.4-0.3,1,0.1,1.4c0.4,0.4,1,0.3,1.4-0.1c0,0,3.4-7.6,3.6-8.1c0.2,0.6,0.5,1.5,0.9,2.2   c0.3,0.7,0.8,2,1.9,1.4c0.2-0.1,0.4-0.4,0.5-0.6c0.2-0.6,0.6-1.6,1.1-2.8c0.6-1.7,1.3-3.7,1.7-5.1c0.6,0.9,1.7,2.7,2.8,4.4   c1.3,2,2.4,4,2.4,4.5c0,0.6,0.4,1,1,1c0.3,0,0.5-0.1,0.7-0.3c0.4-0.3,1-0.7,1.6-1.2c1-0.7,2.4-1.8,3.2-2.4c0.5-0.4,3.1-2.5,5.1-4.1   c0.4-0.4,0.8-0.7,1.2-1c0.5,0.9,1.4,2.5,2.4,4.3c2.6,4.5,6,10.5,6,10.5c0.4,0.4,1,0.3,1.4-0.1c0.4-0.4,0.3-1-0.1-1.4   c0,0-3.1-5.6-5.6-10c-1.3-2.3-2.4-4.2-2.7-4.8l-0.3-0.5c-0.1-0.2-0.3-0.4-0.6-0.5c-0.3-0.1-0.6-0.1-0.8,0.1   c-0.2,0.1-0.4,0.3-0.4,0.5c0,0-0.6,0.5-0.7,0.6c-0.3,0.3-0.7,0.6-1.1,0.9c-1.9,1.6-4.5,3.7-5,4.1c-0.3,0.3-1.8,1.4-3.2,2.4   c-0.2,0.2-0.5,0.3-0.6,0.5c-0.5-1.1-1.3-2.5-2.2-3.9c-1.4-2.1-3-4.3-4.1-5.3c-0.1-0.3-0.4-0.6-0.7-0.6c-0.3-0.1-0.6,0-0.9,0.2   c-0.4,0.3-0.6,1.3-0.7,1.7c-0.4,1.3-1.2,3.4-1.8,5.2l-0.3,0.8c-0.6-1.1-1.2-2.2-1.9-2.7c-0.1-0.1-0.3-0.2-0.5-0.3   c-0.5-0.1-1.1,0.2-1.2,0.9C51.6,31,49.7,37.2,48.4,38.7L48.4,38.7z"></path>
<path d="M63.6,10.8c-0.1,0.2,0,0.5,0.2,0.7c0.2,0.1,0.5,0,0.7-0.2c1.6-2.9,3.9-5.4,6.8-7.1v0l0,0   c2.7-1.6,6-2.6,9.4-2.6c5.1,0,9.6,2.1,12.9,5.4S99,14.8,99,19.8c0,3.7-1.1,7.1-3,10c-1.9,3-4.7,5.3-8,6.8c-0.3,0.1-0.4,0.4-0.3,0.7   c0.1,0.3,0.4,0.4,0.7,0.3c3.5-1.5,6.4-4,8.4-7.1c2-3,3.1-6.7,3.1-10.5c0-5.3-2.2-10.2-5.7-13.7C90.9,2.7,86,0.5,80.7,0.5   c-3.6,0-7,1-9.9,2.7l0,0v0C67.8,5.1,65.3,7.7,63.6,10.8L63.6,10.8z"></path>
<path d="M74.5,56.4c-0.2,0,0.1-0.9-0.2-1c0-0.2-0.9-0.9,0.6-1.3c0.7-0.2,1.2-0.7,2-1.1c0.1,0,0-0.1,0.1-0.2l0.1-0.2   c0-0.1,0.1-0.2,0.1-0.3c0.1-0.1,0.3-0.2,0.3-0.2c1.1-1,1.3-0.7,2.6-1.6c0.4-0.3,0.3-0.8,1.3-0.9c1.4-0.2,0.6,0.4,2.4,0.3   c0.9,0,0.5,0.3,1.6-0.2c0.6-0.3,1.7-0.4,3.3-1.1c0.9-0.5,3.4-1.3,4.3-1.2c1.3,0.1,2.9,0.4,4.2,0.6c1.5,0.2,2.9,0.6,4.8,0.5   c1.5-0.1,6.4,0.2,7.9,0.5c1.3,0.3,3,1,3.7,1.6l1.2,0.9c1.4,1,2.5,3.2,2.6,5c0.1,1.9-1,3.5-0.4,5.2l-0.3,1l0.1,1.1   c0,0.2-0.3,0.3-0.2,0.5c0,1.1,0.1,2,0.8,3.2c0,0.1,0.1,0.2,0.1,0.2c0.3,0.4,0.6,0.9,1,1c0.7,0.1-0.3,2.7-0.7,3.3   c-0.6,0.8-0.8,1.3-1.8,1.4c-1.6,0.1-2.2,0-3.7-0.1c-1-0.1,0.2-1.1,0.6-1.2c0.5-0.2,0.8-0.3,1.2-0.5c0.1,0,0.2-0.2,0.3-0.2   c0-0.6-0.8-0.8-1.6-1.3c-0.9-0.6-1.4-0.5-1.7-1.8c0-0.1-0.1-0.4-0.1-0.4c-0.1-0.2-0.3-0.2-0.6-0.2c0,0.2-0.1,0.3-0.1,0.5   c-0.4,0.1-0.4-0.5-0.6,0.3c-0.4,0-0.4-0.7-0.5,0.4c-0.1,0-0.1-0.1-0.2-0.2c0,0.2,0.1,0.3,0.1,0.4c-0.2,0.1-0.3-0.1-0.5-0.1   c0,0.2,0,0.9,0,1c-0.1-0.1,0-0.1-0.1-0.1c-0.6-0.3-0.1,0.5-0.6,0.7c-1.7,0.7,0.6,1.6-1.1,2.3c-0.5,0.2-3.8,0.1-4.7,0   c-1.2,0-0.6-0.1-1.2-0.2c0-0.3-0.1-0.4,0.3-0.9c0.3-0.3,1.6-0.9,2-1.1c0.2-0.6,0.1-2.8,0.2-4.2c-0.2-0.1-0.2-0.9-0.2-1.1   c-0.1,0-0.3,0.4-0.3,0.4c0-0.1-0.4-0.9-0.4-0.9c0,0.1-0.1,0.8-0.1,0.8c-0.1-0.2-0.4-0.9-0.7-1.2c0,0.2,0.1,0.7,0.2,1   c-0.1-0.2-0.7-1.1-0.8-1.1c0.1,0.4,0,0.5,0,0.7c-0.7-0.9-2.5-1.2-3.4-1.9c0.2,0.9,1,2.7,0.6,4.6c-0.4,2-1,2.3-1.6,4.1   c-0.3,1-1,0.9-2,0.9c-0.8,0-1.9-0.2-2.6-0.1c0,0-1.2,0-1.5,0c-0.2,0-0.1-0.4-0.1-0.5c0.1,0,0-0.4,1.2-0.7c1.1-0.3,2.1,0.1,1.9-1.8   c-0.1-1-0.4-3.1-0.5-4.3c-0.4-0.1-2-1.6-2.2-1.8c0,0-0.1,0.1-0.2,0.2l-0.6,2.7l-0.2-0.9l-0.4,1l-0.1-0.5L88.8,67l-0.1-0.5l-0.2,0.3   l-0.8,2l-0.2-0.5c-0.9,1.3-1.9,3-2,2.9c-0.1-0.1,0-0.9-0.4,0c-0.1,0.2-0.3-0.2-0.3-0.1c-0.3,0.3-0.5-0.1-0.7,0   c-0.2,0-0.4,0.3-0.5,0.3c-0.3,0.1-0.5,0.5-1.1,0.5c-0.7-0.1-2.1,0.1-2.8,0c-0.8-0.2-1.7,0-1.9-0.1c-0.3-0.2,0.4-1.8,2.1-1.5   c0.9-0.2,2.3-1.2,2.8-1.7c1.1-1.2,1.6-3.2,2.2-4.5c0.7-1.6,1-2.8,0.8-3.3c-0.3-0.7-0.1-1.2-1.4-1.1C84,59.4,84,60,83.9,60   c-0.2,0-0.6-0.9-0.7-0.9c-0.1,0-0.1,0.4-0.2,0.4c-0.1,0-0.8-0.5-1-0.6c-0.7-0.4-1.9-0.6-2,0c-0.2-0.2-0.4-0.3-0.6-0.4   c-0.2-0.1-0.7-0.1-0.7,0.1c-0.4-0.6-1.1-1-1.4-1c-0.1,0-1.1,0-1.8-0.2c-0.4-0.1-0.5-0.3-0.4-0.5c0.1,0,0.6-0.1,0-0.3   C75.1,56.5,74.6,56.5,74.5,56.4L74.5,56.4z"></path>
</g>
</svg>