<svg xmlns="http://www.w3.org/2000/svg" xmlns:xlink="http://www.w3.org/1999/xlink" x="0px" y="0px" viewBox="0 0 96.7 131.8" style="enable-background:new 0 0 96.7 131.8;" xml:space="preserve">
<g>
<path d="M96.7,127.9c-0.6,0.1-1,0.3-1.4,0.3c-3.8-0.4-7.5,0.2-11.2,0.6c-3.1,0.3-6.1,0.8-9.1,1.3c-0.8,0.1-1.6,0.2-2.4,0.1   c-2.5-0.1-4.9,0-7.4,0.4c-6.2,0.8-12.4,0.5-18.6,0.5c-5.2,0-10.4,0-15.7,0c-0.6,0-1.3-0.1-1.9-0.4c-2-1.1-4-2.4-6-3.5   c-3.1-1.7-6.3-3.2-9.4-4.9c-2.3-1.2-4.6-2.5-6.5-4.2c-0.2-0.2-0.4-0.5-0.6-0.5c-1.9-0.4-2.2-1.8-2.4-3.4   c-0.6-5.1-1.5-10.2-2.2-15.3c-0.5-3.8-1-7.7-1.6-11.5c-0.2-1.3,0.3-2.3,1.1-3.3c1.1-1.3,2.2-2.5,3.2-3.9c1.5-2,2.8-4,4.2-6.1   c1.6-2.5,3.2-5.1,4.7-7.7c0.6-1,1.5-1.5,2.6-1.6c1.3-0.1,2.5-0.1,3.8-0.1c2.9,0,5.7-0.1,8.6-0.1c3.3-0.1,6.5-0.1,9.8,0.2   c4.4,0.5,8.8,1.1,13.2,0.6c1.5-0.2,3,0,4.8,0c0-1.3,0-2.4,0-3.6c0-2.3,0.2-2.5,2.7-2.8c0-1.7,0.1-3.4,0.1-5.1   c0-0.3-0.1-0.5-0.1-0.8c0.1-1.2-0.6-2.7,0.8-3.5c1.5-0.8,3.2-1,4.9-0.6c1,0.2,1.1,1.2,1.1,2.1c0,2.5,0,5.1,0,7.8   c1.1,0.2,2,0.3,3.1,0.4c0.2,1.8,0.4,3.6,0.6,5.6c1.7-0.1,3.4-0.1,5-0.3c1.1-0.1,1.8,0.4,2,1.2c0.6,2.1,2.1,3.6,3.4,5.2   c2.7,3.3,5.4,6.6,8.1,9.9c1.2,1.5,2.1,3.1,3.1,4.7c0.9,1.4,1.3,2.8,1.4,4.5c0.4,4.7,0.9,9.3,1.4,14c0.4,4.1,0.8,8.1,1.3,12.2   c0.4,3.4,1,6.9,1.5,10.3C96.6,126.8,96.6,127.3,96.7,127.9z M29.2,129c-0.1-2.9-0.3-5.7-0.3-8.6c-0.1-8.4-0.1-16.8-0.2-25.3   c0-1.5-0.3-2.9-0.4-4.4c0-0.3-0.2-0.5-0.3-0.7c-2-3.6-3.9-7.1-5.9-10.7c-1.6-2.9-3.2-5.8-4.9-8.7c-0.8-1.3-1.6-2.5-2.6-3.9   c-1,1.6-1.9,3-2.7,4.4c-1.4,2.2-2.8,4.4-4.2,6.5c-1.4,2.2-3,4.3-4.5,6.4c-1.1,1.5-1.6,3-1.3,4.9c0.7,5.1,1.3,10.2,2.1,15.3   c0.5,3.3,0.5,6.6,1.6,9.9c0.5,1.6,1.3,2.5,3.1,2.9c-0.2-2.8-0.4-5.5-0.5-8.2C8,106.8,8,105,8.3,103.1c0.2-1.5,1.5-2.3,2.6-1.8   c0.9,0.4,1.8,1,2.3,1.8c0.7,1.3,1.2,2.7,1.5,4.1c0.9,4.8,1.7,9.6,2.5,14.4c0.1,0.9,0.5,1.4,1.3,1.8c2.3,1.1,4.7,2.3,7,3.5   C26.7,127.6,27.9,128.2,29.2,129c0.4,0.2,0.8,0.7,1.2,0.7c2.3,0.1,4.5,0.1,6.8,0.1c1.2,0,2.3-0.1,3.4-0.1c0.1-4,0-7.8,0.2-11.6   c0.1-2.4,0.5-4.7,2-6.8c1.9-2.5,4.3-3.5,7.3-3.3c4.6,0.3,8.5,5,9.4,9c0.5,2.4,0.7,4.8,1,7.3c0.2,1.8,0.4,3.5,0.5,5.3   c1.5,0,3,0.2,4.3,0c2.3-0.4,4.6-0.7,7-0.4c0.9,0.1,1.9-0.1,2.8-0.2c5.9-1,11.8-1.7,17.7-2c1.7-0.1,1.9-0.3,2-2.1c0-0.3,0-0.7,0-1   c-0.5-4.2-0.9-8.5-1.4-12.7c-0.5-4-1.1-8.1-1.5-12.1c-0.3-3-0.4-6-0.7-9c-0.1-1-0.4-2.1-0.9-3c-1.9-3.3-3.9-6.5-6.4-9.5   c-2.8-3.3-5.5-6.7-8.4-10.2c-0.5,0.7-1,1.1-1.3,1.7c-1.3,1.9-2.6,3.7-3.8,5.6c-3.2,4.8-6.4,9.6-9.7,14.4c-0.4,0.6-0.9,1.1-1.5,1.7   c-0.6-0.5-1.1-0.9-1.5-1.3c-1.7-2.5-3.5-4.9-5.1-7.4c-2.3-3.5-4.4-7.2-6.6-10.7c-0.7-1.1-1.6-2.2-2.6-3.6c-0.9,1.9-1.6,3.4-2.4,4.8   c-3,5.4-6,10.9-9,16.3c-0.5,1-0.9,2-1.4,3.1c-0.3,0.7-0.7,1.5-0.7,2.2c-0.1,2.5-0.2,5.1-0.1,7.6c0.2,8.6,0.4,17.1,0.7,25.7   C30.6,128.8,30.1,128.9,29.2,129z M44.9,129.7c0-3.7-0.1-7.3,0-10.9c0-1.4,0.4-2.8,0.9-4.1c1.2-3.1,4.1-3.4,6.2-2.1   c2.8,1.8,4.2,4.6,4.7,7.8c0.5,3.1,0.9,6.2,1.4,9.2c0.8,0.2,1.3,0.2,1.3-0.7c0-0.6,0-1.2-0.1-1.8c-0.1-3.9-0.4-7.8-1.8-11.4   c-1.1-3-3-5.4-6.6-6c-4.4-0.7-8.1,2.5-8.6,6c-0.7,4.7-1,9.4,0.1,14C43.5,129.7,44.2,129.7,44.9,129.7z M68,64.7   c0.1-0.5,0.1-0.9,0.1-1.2c0-0.5,0.1-1.1,0-1.6c-0.2-1.4-0.5-1.7-1.9-1.7c-2.8,0.1-5.5,0.2-8.4,0.3c0,1.6,0,3.1,0,4.6   C59.8,65.5,64.4,65.4,68,64.7z M64.4,58.8c0-0.9,0.1-1.6,0.1-2.3c0-1.2-0.1-2.5,0-3.7c0.1-2.2-0.9-3.1-3-2.5   c-0.4,0.1-0.7,0.3-1,0.5c0,1.4,0,2.8,0,4.1c0.1,1.3-0.5,2.6,0.2,3.9C61.9,58.8,63,58.8,64.4,58.8z M18.8,65.9   c3.5,6.5,6.9,12.6,10.3,18.7c0.7-1.8,0.7-1.8-0.2-3.3c-1.4-2.6-2.8-5.3-4.2-7.9c-1.1-2.1-2.3-4.2-3.4-6.3   C20.9,66.1,20.2,65.9,18.8,65.9z M22.3,66.4c2.5,4.5,5,9,7.5,13.4c0.5-0.8,0.7-1.6,0.8-2.4c0.2-0.6,0.2-1.2-0.5-1.6   c-0.3-0.2-0.5-0.5-0.6-0.7c-1.6-2.7-3.2-5.4-4.8-8.1C24.2,66.1,23.5,65.8,22.3,66.4z M15.9,66.2c0.2,0.5,0.4,1,0.6,1.3   c1.9,3.1,3.8,6.2,5.6,9.4c1.8,3.3,3.4,6.6,5.2,9.9c0.2,0.3,0.4,0.7,0.7,1c0.1,0.1,0.3,0.1,0.6,0.2c0.1-0.5,0.2-0.9,0.3-1.1   c-0.6-0.9-1.2-1.5-1.6-2.2c-1.3-2.5-2.6-5-3.9-7.4c-0.4-0.8-0.8-1.5-1.2-2.3c-1.4-2.6-2.7-5.2-4.1-7.8   C17.7,66.6,17.3,65.8,15.9,66.2z M46.1,68.5c-0.1,0.1-0.2,0.2-0.3,0.4c0.8,0.9,1,2.3,2.4,2.8c2.8,0.9,5.7,1.9,8.5,2.8   c0.4,0.1,0.8,0.1,1.3,0.1c-0.3-0.8-0.5-1.3-0.7-1.9C53.6,71.3,49.8,69.9,46.1,68.5z M58.9,73.4c0.1,0.5,0.2,1.1,0.3,1.7   c0.4-0.1,0.6-0.1,0.8-0.2c4.2-2,8.3-3.9,12.5-5.9c0.6-0.3,1-0.8,0.9-1.8C68.4,69.3,63.7,71.3,58.9,73.4z M71,71.2   c-1.8,0.8-3.3,1.4-4.8,2.1c-1.9,0.9-3.8,1.9-5.8,2.8c-1,0.5-1.4,1.2-0.8,2.4c0.4-0.1,0.9-0.1,1.3-0.3c2.4-1.2,4.8-2.5,7.3-3.7   C69.7,73.9,70.3,72.8,71,71.2z M72.4,66c-3.6,0-3.6,0-6.3,1.4c-0.5,0.3-1.1,0.5-1.6,0.7c-1.6,0.7-3.3,1.4-4.9,2.2   c-0.6,0.3-1.1,0.6-0.7,1.3C60.4,71.6,70.3,67.5,72.4,66z M41.5,68.2c-3.3,1.5-5.9,4-8.5,6.3c-0.4,0.3-0.5,0.9-0.7,1.4   c0.6,0,1-0.1,1.3-0.4c1.3-0.9,2.6-1.9,4-2.7C39.5,71.9,41,70.6,41.5,68.2z M46.7,67.1c3.5,1.7,7,3.2,10.9,4.1   c0-0.7,0.1-1.2,0.1-1.7C54,68.6,50.7,66.5,46.7,67.1z M58.1,76.2c-3.1-0.9-6-1.8-8.9-2.7c0.2,0.9,0.6,1.7,1.1,1.9   c2.5,1,5.1,1.8,7.9,2.8C58.1,77.3,58.1,76.6,58.1,76.2z M32.9,72.7c2.8-2,5.4-4,8.1-6c-1.4-0.7-2.5-0.5-3.3,0.2   c-1.4,1.1-2.7,2.3-4.1,3.5C32.9,70.9,32.6,71.6,32.9,72.7z M38.8,74.1c-0.1-0.1-0.3-0.3-0.4-0.5c-2.1,1.6-4.2,3.1-6.3,4.8   c-0.3,0.2-0.3,0.8-0.7,1.7c1.9-1.2,3.3-2.2,4.9-3C37.8,76.5,38.4,75.3,38.8,74.1z M30.7,74.2c0.2-0.1,0.5-0.2,0.7-0.2   c-0.2-0.7-0.2-1.6-0.5-2.2c-0.9-1.7-1.9-3.3-2.9-5c-0.3-0.6-0.8-1-1.8-0.7C27.3,69.1,29.3,71.5,30.7,74.2z M59.6,81.5   c1.1-0.4,1.8-0.6,2.4-1c0.9-0.4,1.7-1.3,2.6-1.4c1.5-0.2,2-1.2,2.5-2.5c-2.4,1-4.8,2.1-7.2,3.3C59.7,80.2,59.8,80.7,59.6,81.5z    M58,81.2c0.4-0.8,0.4-1.4-0.4-1.8c-1.9-0.8-3.9-1.6-6.2-1.8c0.4,0.6,0.6,1.2,0.9,1.3C54.1,79.7,56,80.4,58,81.2z M58.6,69.5   c2.1-0.8,3.9-1.5,5.4-3c-1.8,0.2-3.6,0.3-5.4,0.5C58.6,67.9,58.6,68.6,58.6,69.5z M36.4,78.7c-1.9,1.1-3.5,1.9-5,2.9   c-0.6,0.4-0.5,1.1-0.4,1.9C33.1,82.2,35.5,81.7,36.4,78.7z M33.9,83.5c-3.7,1.6-4.2,2.5-3.5,5.8c0.9-1.5,1.7-2.8,2.5-4.1   C33.2,84.8,33.4,84.3,33.9,83.5z M53.8,80.9c0.9,1.9,3,3,4.9,2.4C57.4,81.7,55.4,81.7,53.8,80.9z M59.9,84.4   c2.4-0.7,3.7-1.7,4.2-3.3c-1.2,0.5-2.4,1-3.5,1.5C59.6,83,59.5,83.6,59.9,84.4z M29.4,65.9c0.3,1.8,1.3,3.2,2.4,4.5   C31.9,68.3,30.5,67.2,29.4,65.9z M58.5,85.2c-0.8-0.1-1.4-0.2-2.1-0.3c1.1,2.2,1.1,2.2,2.4,2.9C58.7,86.9,58.6,86.1,58.5,85.2z    M57.4,68.4c-0.5-1.7-1.2-1.9-3.9-1.3C55,67.5,56,67.9,57.4,68.4z M33.6,68c0.2,0.1,0.5,0.3,0.7,0.4c0.5-0.7,1-1.5,1.6-2.3   c-0.7,0-1.3,0-2.1,0C33.8,66.8,33.7,67.4,33.6,68z M31.5,65.8c0.3,0.6,0.5,1,0.8,1.6C32.6,66.6,33.1,66,31.5,65.8z M61.1,85.8   c-0.1-0.1-0.3-0.2-0.4-0.3c-0.2,0.3-0.5,0.7-0.7,1c0.1,0.1,0.2,0.2,0.3,0.2C60.6,86.4,60.9,86.1,61.1,85.8z"></path>
<path d="M81.9,27.6c0,0.2-0.1,0.7-0.2,1.1c-1.4,2.9-2.9,5.7-5.7,7.6c-2.8,1.9-5.6,3.9-8.4,5.8c-1.2,0.8-2.1,1.8-2.5,3.2   c-0.1,0.4-0.6,0.6-0.9,0.9c-0.3-0.3-0.6-0.6-0.8-1c-0.7-1.6-0.1-3.2,0.1-4.7c0.3-2.7,1-5.4,1.5-8.1c0.5-2.5,1.5-4.9,3-6.8   c1.3-1.7,3.5-3,5.5-3.9c1.7-0.7,3.8-0.3,5.7,0.5C81.4,23.3,81.8,25.2,81.9,27.6z M77.4,33.5c-1.6-3.1-1.3-6.8-3.5-10   C73.7,25.5,75.7,31.5,77.4,33.5z M70.7,38.2c-0.8-2.4-1-5-2.7-7C68.7,33.6,69.3,36.1,70.7,38.2z M70.3,30.1   c-0.2,0.1-0.4,0.2-0.6,0.3c0.9,2.3,1.7,4.5,2.6,6.9c0.5-0.3,0.8-0.5,1.1-0.7c-1.1-0.6-1.5-1.5-1.8-2.6   C71.3,32.7,70.7,31.4,70.3,30.1z M79.5,29.2c1-1.5,0.8-2.4-0.7-3.7C79.1,27,79.3,28.1,79.5,29.2z M72.1,29.6c-0.1,0-0.2,0-0.3,0.1   c0.2,0.6,0.3,1.1,0.5,1.7c0.1,0,0.2-0.1,0.3-0.1C72.4,30.7,72.3,30.1,72.1,29.6z M76.5,24.5c-0.1,0-0.1,0-0.2,0.1   c0.1,0.4,0.3,0.9,0.4,1.3c0.3-0.3,0.3-0.6,0.3-0.8C76.9,24.9,76.7,24.7,76.5,24.5z M65.3,41.9c-0.1,0-0.2-0.1-0.3-0.1   c-0.1,0.3-0.2,0.6-0.3,0.9c0.1,0,0.2,0.1,0.3,0.1C65,42.4,65.1,42.2,65.3,41.9z M74.4,35.8c-0.1-0.2-0.1-0.4-0.2-0.4   c-0.2,0-0.3,0.1-0.4,0.2c0,0,0.1,0.3,0.1,0.3C74.1,35.9,74.3,35.8,74.4,35.8z"></path>
<path d="M68.6,18.5c-0.3-0.4-0.8-0.7-0.8-1c0-5.3,0.7-10.4,3.6-14.9c0.5-0.8,1.2-1.4,1.9-2c1-0.8,2-0.7,2.8,0.3   c1.5,1.7,1.4,3.7,0.6,5.6c-0.5,1.2-1.3,2.3-2,3.4C72.7,12.7,70.8,15.4,68.6,18.5z M75.4,4.7c0.1,0,0.3-0.1,0.4-0.1   c-0.1-0.4-0.3-0.9-0.4-1.3c-0.1,0-0.2,0.1-0.3,0.1C75.2,3.8,75.3,4.3,75.4,4.7z M74.1,6.2c-0.1,0-0.2,0.1-0.3,0.1   c0.2,0.4,0.3,0.9,0.5,1.3c0.1,0,0.3-0.1,0.4-0.1C74.5,7.1,74.3,6.7,74.1,6.2z M71.3,6.3c-0.1,0-0.2-0.1-0.3-0.1   c-0.1,0.3-0.3,0.6-0.4,0.9c0.1,0,0.2,0.1,0.3,0.1C71,6.9,71.2,6.6,71.3,6.3z"></path>
<path d="M59.4,34c-0.4-3-0.7-6-1-9c-0.3-2.5,0.9-4.5,2.1-6.5c0.7-1.2,2.4-0.9,2.7,0.5c0.3,1.4,0.5,2.9,0.3,4.3   c-0.3,1.8-1,3.6-1.5,5.4c-0.4,1.5-0.8,3.1-1.3,4.6c-0.1,0.4-0.5,0.7-0.7,1C59.8,34.1,59.6,34.1,59.4,34z"></path>
<path d="M55.5,35.3c2.3,0.4,3.5,1.7,3.8,4.2c0.2,1.7,0.5,3.3,1.4,4.8c0.4,0.7,0.5,1.4-0.2,1.7c-0.7,0.3-1.3-0.2-1.6-0.8   c-0.8-1.6-1.6-3.2-2.5-4.8c-0.6-1.2-1.2-2.4-1.1-3.8C55.2,36.2,55.4,35.8,55.5,35.3z"></path>
<path d="M80.7,101.4c-2.4,0.1-4.6,0.1-6.7,0.2c-0.8,0-1.3-0.3-1.5-1.1c-0.8-3.7-1.8-7.4-0.2-11.2c0.3-0.7,0.6-1.5,1.1-2.1   c1.2-1.5,2.8-1.5,4,0c0.7,0.9,1.5,1.8,1.7,2.9c0.8,3,1.3,6,1.8,9C81.1,99.6,80.8,100.3,80.7,101.4z M76.2,99.9   c0.3,0,0.5,0.1,0.8,0.1c2,0,2.5-0.5,2.3-2.5c-0.2-1.8-0.5-3.7-1-5.5c-0.3-1.2-0.9-2.4-1.6-3.4c-1-1.4-2.1-1.4-2.9,0.1   c-0.7,1.5-1.5,3-1.2,4.8c0.2,1.2,0.2,2.4,0.4,3.6C73.4,99.8,73.4,99.8,76.2,99.9z"></path>
<path d="M43.7,89.5c0.2,3.8,0.4,7.4,0.6,11c0.1,1.6-0.6,2.5-2.2,2.7c-0.7,0.1-1.5,0.1-2.2,0.2c-1.1,0.1-1.4-0.1-1.6-1.3   c-0.1-0.9-0.2-1.9-0.3-2.8c-0.1-2.9-0.3-5.7-0.4-8.6c-0.1-1.4,0.1-1.6,1.5-1.8C40.8,88.6,42.4,88.5,43.7,89.5z M39.9,101.4   c2.5,0.4,3.1,0,3.1-1.7c0-2.5,0-5.1-0.1-7.6c0-0.6-0.2-1.2-0.3-1.9c-1.2,0.1-2.2,0.2-3.4,0.3C39.1,94.3,39.2,97.9,39.9,101.4z"></path>
<path d="M75.9,121.8c-0.2-4.3-1.4-8.3-0.6-12.5c0.2-1.1,0.3-2.3,1.6-2.4c1.2-0.2,2.2,0.5,2.9,1.4c0.5,0.6,0.9,1.2,1.1,1.9   c0.5,2,0.9,4,1.3,6c0.2,0.8,0.3,1.6,0.4,2.4c0.1,1-0.3,1.9-1.2,1.9c-1.5,0-2.7,0.6-4,1.1C77.1,121.8,76.7,121.7,75.9,121.8z    M81.3,119c-0.1-1.1-0.1-2.1-0.3-3.2c-0.4-1.8-0.7-3.6-1.3-5.4c-0.4-1.2-1.2-2-2.9-2c-1.6,3.9,0,7.6,0.3,11.5   C78.7,119.6,80,119.3,81.3,119z"></path>
<path d="M51.6,89.1c0.1,3.1,0.3,6.2,0.4,9.3c0,0.5,0.1,0.9,0.2,1.4c0.3,1.4,0,2-1.3,2.4c-1.2,0.3-2.5,0.4-3.9,0.7   c-0.2-0.7-0.5-1.3-0.5-1.8c-0.1-1.9,0-3.9-0.1-5.8c-0.1-1.7-0.2-3.3-0.3-5c-0.1-1.6,0.1-1.8,1.7-2.1C49.7,88,50.2,88.1,51.6,89.1z    M47.8,101.1c2.8,0.2,3.1,0,3.1-2.3c0-1.5,0-3-0.1-4.6c-0.1-1.5-0.3-3-0.4-4.6c-1.1,0.1-2,0.1-3.1,0.2   C47.4,93.6,47.6,97.3,47.8,101.1z"></path>
<path d="M20.4,97.4c-1.7-0.6-3-1-4.3-1.4c-2.4-0.8-4.8-1.6-7.2-2.4c-0.5-0.2-1.2-0.6-1.3-1.1c-0.4-2.5-0.9-5-1-7.5   c-0.1-1.4,0.8-1.9,2.3-1.6c3.3,0.6,6.5,1.3,9.8,1.9c0.9,0.2,1.2,0.7,1.2,1.5c0,1.1-0.1,2.1,0,3.2c0.1,1.9,0.3,3.7,0.5,5.6   C20.4,96,20.4,96.4,20.4,97.4z M18.6,95.1c0-2.6,0-5,0-7.3c0-0.4-0.5-1-0.9-1.1c-0.7-0.3-1.5-0.3-2.4-0.5c-0.4,2.9,0,5.4,0.5,8.1   C16.7,94.5,17.7,94.8,18.6,95.1z M10.3,85.3c-2.3-0.8-2.6-0.5-2.3,1.6c0.2,1.6,0.5,3.3,0.7,5.1c0.6,0.1,1.3,0.3,2.3,0.5   C10.8,89.8,10.6,87.5,10.3,85.3z M14.5,93.4c-0.2-2.1-0.3-3.9-0.5-5.8c-0.2-2-0.2-2-2.4-2.1c0.1,2,0.2,4,0.4,5.9   C12.2,93.1,12.3,93.1,14.5,93.4z"></path>
<path d="M16.1,102.7c1.2,0.1,2.4,0.2,3.6,0.3c1.7,0.2,2.2,0.7,2.4,2.4c0.3,2.1,0.4,4.1,0.6,6.2c0.2,1.4,0.3,2.8,0.5,4.3   c-1.5,0.2-2.8,0.4-4.1,0.5c-0.4,0-1-0.4-1.2-0.8c-0.3-0.5-0.5-1.1-0.5-1.7c-0.5-3.5-1-7-1.5-10.5C15.8,103.3,15.9,103.1,16.1,102.7   z M21.8,114.3c-0.3-2.7-0.6-5.3-1-7.9c-0.3-1.9-0.3-1.9-2.1-2.1c-0.4,0-0.7,0-1.3,0.1c0.3,2.3,0.5,4.5,0.8,6.6   c0.1,0.5,0.1,1.1,0.2,1.6C18.9,115,18.9,115,21.8,114.3z"></path>
</g>
</svg>